<svg xmlns="http://www.w3.org/2000/svg" width="170.812" height="149.46" viewBox="0 0 170.812 149.46">
  <path id="Icon_awesome-quote-left" data-name="Icon awesome-quote-left" d="M154.8,76.98H128.109V55.629A21.371,21.371,0,0,1,149.46,34.277h2.669a7.988,7.988,0,0,0,8.007-8.007V10.257a7.988,7.988,0,0,0-8.007-8.007H149.46A53.364,53.364,0,0,0,96.081,55.629V135.7A16.018,16.018,0,0,0,112.1,151.71h42.7A16.018,16.018,0,0,0,170.812,135.7v-42.7A16.018,16.018,0,0,0,154.8,76.98Zm-96.081,0H32.027V55.629A21.371,21.371,0,0,1,53.379,34.277h2.669a7.988,7.988,0,0,0,8.007-8.007V10.257A7.988,7.988,0,0,0,56.048,2.25H53.379A53.364,53.364,0,0,0,0,55.629V135.7A16.018,16.018,0,0,0,16.014,151.71h42.7A16.018,16.018,0,0,0,74.73,135.7v-42.7A16.018,16.018,0,0,0,58.716,76.98Z" transform="translate(0 -2.25)" fill="#ccc"/>
</svg>
